<?xml version="1.0" encoding="utf-8"?>
<!-- Generator: Adobe Illustrator 15.1.0, SVG Export Plug-In . SVG Version: 6.00 Build 0)  -->
<!DOCTYPE svg PUBLIC "-//W3C//DTD SVG 1.1//EN" "http://www.w3.org/Graphics/SVG/1.1/DTD/svg11.dtd">
<svg version="1.1" id="Ebene_1" xmlns="http://www.w3.org/2000/svg" xmlns:xlink="http://www.w3.org/1999/xlink" x="0px" y="0px"
	 width="467.843px" height="74.712px" viewBox="-95.27 4.995 467.843 74.712" enable-background="new -95.27 4.995 467.843 74.712"
	 xml:space="preserve">
<g>
	<path fill="#E7304A" d="M-86.53,20.425c-5.852,0-8.74-1.824-8.74-5.701c0-3.876,2.888-5.776,8.74-5.776h21.433
		c5.853,0,8.741,1.9,8.741,5.776c0,3.876-2.888,5.701-8.741,5.701h-4.56V54.93c0,5.852-1.976,8.74-6.156,8.74
		s-6.156-2.889-6.156-8.74V20.425H-86.53z"/>
	<path fill="#E7304A" d="M-31.505,21.792c9.348,0,14.593,5.396,14.593,15.809v17.177c0,5.853-1.9,8.74-6.004,8.74
		c-4.104,0-6.004-2.888-6.004-8.74V41.249c0-6.308-1.596-9.272-6.46-9.272c-4.56,0-6.384,3.116-6.384,9.121v13.681
		c0,5.853-1.9,8.74-6.004,8.74c-4.104,0-6.004-2.888-6.004-8.74V13.736c0-5.853,1.9-8.741,6.004-8.741
		c4.028,0,6.004,2.888,6.004,8.741v11.856C-39.03,22.704-35.914,21.792-31.505,21.792z"/>
	<path fill="#E7304A" d="M9.989,53.259c6.004,0,9.881-3.877,12.617-3.877c2.888,0,4.789,1.9,4.789,4.637
		c0,4.712-7.601,10.032-18.013,10.032c-11.78,0-20.749-8.968-20.749-21.205c0-12.237,8.665-21.433,20.141-21.433
		s19.533,9.121,19.533,19.836c0,4.105-1.9,4.865-5.929,4.865H0.945C1.477,50.598,4.821,53.259,9.989,53.259z M16.602,38.285
		c-0.304-4.18-3.725-7.145-7.752-7.145c-4.028,0-7.221,2.736-8.057,7.145H16.602z"/>
	<path fill="#E7304A" d="M72.156,63.671c-4.864,0-7.145-2.432-8.437-8.133l-8.968-39.066C54.6,15.636,54.6,14.724,54.6,13.736
		c0-3.42,2.584-5.548,6.232-5.548c3.192,0,5.32,1.976,5.929,5.396l6.46,34.354l8.969-34.506c0.912-3.42,3.192-5.168,6.84-5.168
		c3.572,0,5.776,1.824,6.688,5.32l8.816,34.354l6.46-33.518c0.836-4.256,2.584-6.157,6.232-6.157c3.725,0,6.081,2.508,6.081,5.701
		c0,1.064-0.152,2.356-0.456,3.648l-9.424,37.926c-1.368,5.625-2.888,8.133-8.513,8.133c-4.408,0-6.992-2.128-8.208-6.916
		l-8.056-30.858L81.049,56.07C79.833,61.01,76.717,63.671,72.156,63.671z"/>
	<path fill="#E7304A" d="M140.623,63.899c-9.805,0-18.165-8.589-18.165-21.13c0-12.161,8.437-21.205,18.621-21.205
		c4.104,0,7.145,1.368,9.577,4.256c1.367-2.432,3.268-3.8,5.699-3.8c4.104,0,5.929,2.812,5.929,8.665v24.093
		c0,5.853-1.899,8.74-5.929,8.74c-2.66,0-4.408-1.292-5.699-4.18C148.224,62.302,144.727,63.899,140.623,63.899z M142.599,52.423
		c4.409,0,7.676-3.877,7.676-9.805c0-5.853-3.344-9.577-7.676-9.577c-4.332,0-7.752,3.648-7.752,9.577
		C134.847,48.698,138.191,52.423,142.599,52.423z"/>
	<path fill="#E7304A" d="M192.759,25.213c2.128-2.204,4.027-3.268,6.156-3.268c2.812,0,5.016,2.128,5.016,4.636
		c0,1.9-1.14,4.028-3.04,5.776l-8.057,7.448l11.173,13.148c1.596,1.9,2.356,3.648,2.356,5.776c0,2.736-2.433,4.94-5.625,4.94
		c-2.279,0-4.332-1.217-6.231-3.725l-11.933-15.961v10.793c0,5.853-1.9,8.74-6.005,8.74s-6.004-2.888-6.004-8.74V13.736
		c0-5.853,1.899-8.741,6.004-8.741c4.028,0,6.005,2.888,6.005,8.741v22.041L192.759,25.213z"/>
	<path fill="#E7304A" d="M228.63,53.259c6.004,0,9.88-3.877,12.616-3.877c2.889,0,4.788,1.9,4.788,4.637
		c0,4.712-7.6,10.032-18.013,10.032c-11.78,0-20.749-8.968-20.749-21.205c0-12.237,8.664-21.433,20.142-21.433
		c11.477,0,19.532,9.121,19.532,19.836c0,4.105-1.899,4.865-5.928,4.865h-21.434C220.117,50.598,223.461,53.259,228.63,53.259z
		 M235.242,38.285c-0.305-4.18-3.725-7.145-7.753-7.145s-7.22,2.736-8.056,7.145H235.242z"/>
	<path fill="#E7304A" d="M277.495,17.004c0-5.853,1.977-8.741,6.156-8.741c4.181,0,6.156,2.888,6.156,8.741v21.433
		c0,9.577,3.725,14.364,10.869,14.364s10.868-4.787,10.868-14.364V17.004c0-5.853,1.977-8.741,6.156-8.741
		c4.181,0,6.156,2.888,6.156,8.741v22.801c0,16.113-9.044,24.777-23.181,24.777s-23.182-8.664-23.182-24.777V17.004z"/>
	<path fill="#E7304A" d="M338.751,79.708c-4.104,0-6.004-2.889-6.004-8.74V30.685c0-5.852,1.899-8.665,6.004-8.665
		c2.356,0,4.257,1.216,5.7,3.8c2.433-2.66,5.776-4.104,9.881-4.104c10.032,0,18.241,8.74,18.241,21.053
		c0,12.085-8.36,21.509-18.394,21.509c-3.648,0-6.688-1.14-9.424-3.496v10.186C344.756,76.819,342.855,79.708,338.751,79.708z
		 M352.432,53.106c4.561,0,7.904-3.952,7.904-10.185c0-6.081-3.496-10.033-7.904-10.033s-7.904,3.8-7.904,10.033
		C344.527,49.229,347.872,53.106,352.432,53.106z"/>
</g>
</svg>
