<?xml version="1.0" encoding="utf-8"?>
<!-- Generator: Adobe Illustrator 15.1.0, SVG Export Plug-In . SVG Version: 6.00 Build 0)  -->
<!DOCTYPE svg PUBLIC "-//W3C//DTD SVG 1.1//EN" "http://www.w3.org/Graphics/SVG/1.1/DTD/svg11.dtd">
<svg version="1.1" id="Ebene_1" xmlns="http://www.w3.org/2000/svg" xmlns:xlink="http://www.w3.org/1999/xlink" x="0px" y="0px"
	 width="400.9px" height="80.1px" viewBox="0 0 400.9 80.1" style="enable-background:new 0 0 400.9 80.1;" xml:space="preserve">
<style type="text/css">
<![CDATA[
	.st0{fill:#3E454C;}
]]>
</style>
<g>
	<path class="st0" d="M22,17.6c8.6,0,14.3,3.4,14.3,8.2c0,3.1-2.2,5.4-5.3,5.4c-2.4,0-5.4-1.9-9-1.9c-5.2,0-8.8,4.2-8.8,10.8
		c0,6.6,3.5,10.8,9.3,10.8c3.7,0,6.7-1.9,8.8-1.9c2.9,0,4.9,2.5,4.9,5.5c0,4.5-6.1,8.5-15,8.5C8.7,62.9,0,53.9,0,40.3
		C0,27.1,8.6,17.6,22,17.6z"/>
	<path class="st0" d="M60.2,17.4c12.7,0,21.6,9.6,21.6,22.9s-8.9,22.9-21.6,22.9c-12.6,0-21.7-9.6-21.7-22.9S47.6,17.4,60.2,17.4z
		 M60.2,51c4.9,0,8.4-4.2,8.4-10.9c0-6.5-3.7-10.7-8.4-10.7s-8.4,4.1-8.4,10.7C51.7,46.9,55.3,51,60.2,51z"/>
	<path class="st0" d="M93.3,0c4.3,0,6.3,3.1,6.3,9.3v43.8c0,6.2-1.9,9.3-6.3,9.3s-6.4-3.1-6.4-9.3V9.3C86.9,3.1,88.9,0,93.3,0z"/>
	<path class="st0" d="M112.3,0c4.3,0,6.3,3.1,6.3,9.3v43.8c0,6.2-1.9,9.3-6.3,9.3c-4.4,0-6.4-3.1-6.4-9.3V9.3
		C105.9,3.1,107.9,0,112.3,0z"/>
	<path class="st0" d="M143.1,62.9c-10.5,0-19.4-9.2-19.4-22.5c0-13,9-22.6,19.9-22.6c4.4,0,7.6,1.5,10.2,4.5
		c1.5-2.6,3.5-4.1,6.1-4.1c4.4,0,6.3,3,6.3,9.2v25.7c0,6.2-2,9.3-6.3,9.3c-2.8,0-4.7-1.4-6.1-4.5C151.2,61.1,147.4,62.9,143.1,62.9z
		 M145.2,50.6c4.7,0,8.2-4.1,8.2-10.5c0-6.2-3.6-10.2-8.2-10.2c-4.6,0-8.3,3.9-8.3,10.2C136.9,46.6,140.5,50.6,145.2,50.6z"/>
	<path class="st0" d="M196.2,17.4c10.7,0,19.6,9.5,19.6,23c0,12.6-9.2,22.4-19.6,22.4c-4.2,0-7.9-1.5-10.4-4.4
		c-1.5,2.7-3.6,4.1-6.1,4.1c-4.4,0-6.4-3.1-6.4-9.3V9.3c0-6.2,2-9.3,6.4-9.3c4.4,0,6.4,3.1,6.4,9.3V21
		C188.7,18.8,191.9,17.4,196.2,17.4z M194.4,50.8c4.8,0,8.4-4.2,8.4-10.7c0-6.7-3.6-10.9-8.4-10.9s-8.4,4.1-8.4,10.9
		C185.9,46.7,189.6,50.8,194.4,50.8z"/>
	<path class="st0" d="M218.6,53.6c0-3.2,2.2-5.8,4.9-5.8c4,0,7.9,3.7,11.8,3.7c2.2,0,3.6-1.2,3.6-2.6c0-2-2.4-2.8-7-4.7
		c-7.9-3.2-12.2-6.2-12.2-13.1c0-7.6,6.5-13.8,16-13.8c8.9,0,15,4.5,15,8.9c0,3-2.4,5.4-5.3,5.4c-3.1,0-6.8-3.1-10.3-3.1
		c-1.9,0-2.9,1-2.9,2.2c0,2.4,3.5,2.9,8.8,5.3c7.1,3.2,10.6,6.6,10.6,12.4c0,8.1-7.1,14.6-17.3,14.6C225,63.1,218.6,58.8,218.6,53.6
		z"/>
	<path class="st0" d="M259.6,30.5c-4.5,0-7.2-2.2-7.2-5.5c0-3.5,2.6-5.4,7.7-5.7v-5.6c0-6.2,2-9.3,6.4-9.3c4.3,0,6.3,3.1,6.3,9.3
		v5.6h1.1c5.1,0,8,2.2,8,5.7c0,3.6-2.7,5.5-8.1,5.5h-1.1v22.6c0,6.2-1.9,9.3-6.3,9.3c-4.4,0-6.4-3.1-6.4-9.3V30.5
		C259.9,30.5,259.7,30.5,259.6,30.5z"/>
	<path class="st0" d="M303.6,17.4c12.7,0,21.6,9.6,21.6,22.9s-8.9,22.9-21.6,22.9c-12.6,0-21.7-9.6-21.7-22.9S291,17.4,303.6,17.4z
		 M303.6,51c4.9,0,8.4-4.2,8.4-10.9c0-6.5-3.7-10.7-8.4-10.7c-4.7,0-8.4,4.1-8.4,10.7C295.2,46.9,298.8,51,303.6,51z"/>
	<path class="st0" d="M329.9,27.4c0-6.2,2-9.2,6.4-9.2c2.5,0,4.5,1.3,6.1,4.1c2.7-2.8,5.7-4.3,8.7-4.3c3.6,0,6.5,2.9,6.5,6.3
		c0,5.1-5.7,5.5-10.9,7.9c-3.6,1.7-4,3.2-4,7.6v13.3c0,6.2-2,9.3-6.4,9.3c-4.4,0-6.4-3.1-6.4-9.3V27.4z"/>
	<path class="st0" d="M394.6,18.2c3.9,0,6.3,2.4,6.3,6.1c0,1.3-0.4,2.8-1.1,4.5l-19.5,46.2c-1.4,3.2-2.8,5.2-5.6,5.2
		c-4,0-6.3-2.4-6.3-6.2c0-1.4,0.3-2.8,1.1-4.4l5.3-11.4l-12.9-30.1c-0.6-1.2-0.7-2.5-0.7-3.6c0-3.6,2.8-6.3,6.2-6.3
		c3.6,0,5,2.2,6.5,6.2l7.2,19.3l7.9-20.4C390.3,19.8,392,18.2,394.6,18.2z"/>
</g>
</svg>
