<?xml version="1.0" encoding="utf-8"?>
<!-- Generator: Adobe Illustrator 17.0.0, SVG Export Plug-In . SVG Version: 6.00 Build 0)  -->
<!DOCTYPE svg PUBLIC "-//W3C//DTD SVG 1.1//EN" "http://www.w3.org/Graphics/SVG/1.1/DTD/svg11.dtd">
<svg version="1.1" id="Layer_1" xmlns="http://www.w3.org/2000/svg" xmlns:xlink="http://www.w3.org/1999/xlink" x="0px" y="0px"
	 width="233.736px" height="78.91px" viewBox="0 0 233.736 78.91" enable-background="new 0 0 233.736 78.91" xml:space="preserve">
<g>
	<path fill="#E7304A" d="M9.937,6.979c3.601,0,6.48,2.952,6.48,6.552c0,3.673-2.88,6.553-6.48,6.553
		c-3.672,0-6.552-2.88-6.552-6.553C3.385,9.931,6.337,6.979,9.937,6.979z M9.937,62.423c-3.888,0-5.688-2.736-5.688-8.28V31.316
		c0-5.545,1.801-8.209,5.688-8.209c3.816,0,5.617,2.664,5.617,8.209v22.826C15.554,59.687,13.825,62.423,9.937,62.423z"/>
	<path fill="#E7304A" d="M22.047,31.316c0-5.545,1.8-8.209,5.688-8.209c2.231,0,4.032,1.152,5.4,3.601
		c2.376-2.593,5.256-3.744,9.072-3.744c4.896,0,8.641,1.8,11.306,5.328c3.456-3.816,6.769-5.328,11.448-5.328
		c7.849,0,12.817,5.112,12.817,14.905v16.273c0,5.544-1.8,8.28-5.688,8.28s-5.616-2.736-5.616-8.28V41.325
		c0-5.761-1.513-8.641-5.185-8.641c-4.104,0-5.688,2.88-5.688,8.496v12.962c0,5.544-1.8,8.28-5.688,8.28s-5.688-2.736-5.688-8.28
		V41.325c0-5.761-1.44-8.641-5.112-8.641c-4.104,0-5.688,2.88-5.688,8.496v12.962c0,5.544-1.801,8.28-5.688,8.28
		c-3.889,0-5.688-2.736-5.688-8.28V31.316z"/>
	<path fill="#E7304A" d="M86.99,77.761c-3.889,0-5.688-2.736-5.688-8.281V31.316c0-5.545,1.8-8.209,5.688-8.209
		c2.231,0,4.032,1.152,5.4,3.601c2.304-2.521,5.473-3.889,9.36-3.889c9.505,0,17.281,8.281,17.281,19.946
		c0,11.448-7.92,20.377-17.425,20.377c-3.457,0-6.337-1.08-8.929-3.312v9.648C92.679,75.024,90.878,77.761,86.99,77.761z
		 M99.951,52.559c4.32,0,7.488-3.745,7.488-9.649c0-5.761-3.312-9.505-7.488-9.505c-4.177,0-7.489,3.601-7.489,9.505
		C92.462,48.886,95.631,52.559,99.951,52.559z"/>
	<path fill="#E7304A" d="M121.981,31.316c0-5.545,1.8-8.209,5.688-8.209c2.231,0,4.032,1.152,5.4,3.601
		c2.376-2.521,5.04-3.816,7.704-3.816c3.169,0,5.761,2.592,5.761,5.616c0,4.537-5.04,4.896-9.648,7.057
		c-3.169,1.513-3.528,2.881-3.528,6.769v11.81c0,5.544-1.801,8.28-5.688,8.28c-3.889,0-5.688-2.736-5.688-8.28V31.316z"/>
	<path fill="#E7304A" d="M154.431,6.979c3.601,0,6.48,2.952,6.48,6.552c0,3.673-2.88,6.553-6.48,6.553
		c-3.672,0-6.552-2.88-6.552-6.553C147.879,9.931,150.831,6.979,154.431,6.979z M154.431,62.423c-3.888,0-5.688-2.736-5.688-8.28
		V31.316c0-5.545,1.801-8.209,5.688-8.209c3.816,0,5.617,2.664,5.617,8.209v22.826C160.048,59.687,158.319,62.423,154.431,62.423z"
		/>
	<path fill="#E7304A" d="M166.541,31.316c0-5.545,1.8-8.209,5.688-8.209c2.231,0,4.032,1.152,5.4,3.601
		c2.52-2.736,5.616-3.816,10.009-3.816c8.856,0,13.825,5.112,13.825,14.978v16.273c0,5.544-1.801,8.28-5.688,8.28
		c-3.889,0-5.688-2.736-5.688-8.28V41.325c0-5.977-1.513-8.785-6.121-8.785c-4.32,0-6.048,2.952-6.048,8.641v12.962
		c0,5.544-1.801,8.28-5.688,8.28c-3.889,0-5.688-2.736-5.688-8.28V31.316z"/>
	<path fill="#E7304A" d="M209.546,34.053c-4.032,0-6.409-1.944-6.409-4.896c0-3.097,2.305-4.824,6.841-5.041v-4.968
		c0-5.545,1.801-8.281,5.688-8.281c3.816,0,5.616,2.736,5.616,8.281v4.968h1.009c4.536,0,7.128,1.944,7.128,5.041
		c0,3.168-2.376,4.896-7.2,4.896h-0.937v20.09c0,5.544-1.728,8.28-5.616,8.28c-3.888,0-5.688-2.736-5.688-8.28v-20.09
		C209.834,34.053,209.689,34.053,209.546,34.053z"/>
</g>
</svg>
