<?xml version="1.0" encoding="utf-8"?>
<!-- Generator: Adobe Illustrator 15.1.0, SVG Export Plug-In . SVG Version: 6.00 Build 0)  -->
<!DOCTYPE svg PUBLIC "-//W3C//DTD SVG 1.1//EN" "http://www.w3.org/Graphics/SVG/1.1/DTD/svg11.dtd">
<svg version="1.1" id="Ebene_1" xmlns="http://www.w3.org/2000/svg" xmlns:xlink="http://www.w3.org/1999/xlink" x="0px" y="0px"
	 width="467.2px" height="467.1px" viewBox="0 0 467.2 467.1" style="enable-background:new 0 0 467.2 467.1;" xml:space="preserve"
	>
<style type="text/css">
<![CDATA[
	.st0{fill:#FFFFFF;}
	.st1{fill:#3E454C;}
]]>
</style>
<g>
	<path class="st1" d="M467.2,233.6C467.2,104.6,362.6,0,233.6,0C104.6,0,0,104.6,0,233.6c0,129,104.6,233.6,233.6,233.6
		C362.6,467.1,467.2,362.6,467.2,233.6z"/>
	<g>
		<path class="st0" d="M154.4,361.8c-13.5,0-26.7-13.2-26.7-26.3c0-12,6.4-20.3,13.9-30.8l61.7-88v-86.1c0-29,9.8-43.3,30.5-43.3
			c20.7,0,30.5,14.3,30.5,43.3v86.1l61.7,87.3c7.5,10.5,13.5,18.8,13.5,30.8c0,13.5-11.7,26.7-29.3,26.7c-10.5,0-20.3-7.9-31.2-23.3
			l-45.5-65.1l-46.3,65.8C176.6,353.9,164.9,361.8,154.4,361.8z"/>
	</g>
</g>
</svg>
